<?xml version="1.0" encoding="UTF-8"?>
<svg id="Layer_1" data-name="Layer 1" xmlns="http://www.w3.org/2000/svg" viewBox="0 0 159.33 156.1">
  <defs>
    <style>
      .cls-1 {
        fill: #babedb;
      }

      .cls-2 {
        fill: #4b50a2;
      }
    </style>
  </defs>
  <path class="cls-2" d="M151.13,87.62c16.31-19.18,7.14-53.24-17.23-60.59C127.25,7.32,106.47-3.19,86.34.86c-7.28,1.46-14.26,5.32-19.53,10.48-.44-4.91-6.16-8.47-10.15-4.59-3.19,3.1.27,9.37-4.57,9.88-5.34.56-3.32-5.48-4.38-8.13-2-5-10.07-4-10.97,1.38-.39,2.36.83,6.52-2.97,6.77-4.82.31-2.91-5.07-3.99-7.99-1.79-4.86-9.33-4.6-10.81.4-.47,1.57-.04,2.47-.09,3.77-.2,4.87-6.08,5.04-6.62,1.13-.33-2.39.33-4.22-1.29-6.49C7.74,2.96.54,5.13.26,10.63c.67,14.99-.85,30.69,0,45.6.58,10.21,4.49,22.78,13.86,28.1-.27,10.31-.34,20.08,6.7,28.31,14.26,16.64,35.51,8.53,52.6,18.25,8.18,4.66,11.43,11.85,18.44,17.13,10.04,7.57,19.52,8.7,31.91,7.84,2.38-.17,5.61-.48,5.68-3.48l.56-15.98c13.58-1.33,21.21-13.79,21.96-26.53.14-2.4-.24-4.67-.3-6.95-.14-5.11-.2-10.19-.54-15.29ZM66.39,17.87c15.95-22.17,53.78-16.87,63.06,8.75h-63.06v-8.75ZM5.83,8.95c3.22-.77,2.38,4.42,2.85,6.34,1.65,6.66,11.58,6.65,13.41.23.69-2.41-.67-7.56,3.2-6.28,1.67.55.96,3.87,1.22,5.45,1.32,8.22,13.64,7.28,14.02-1.03.06-1.22-.83-3.92,1.05-4.48,3.52-1.05,2.4,3.89,2.98,6.07,1.72,6.48,12.18,6.9,13.81.16.5-2.05-.23-4.07.8-5.87,1.07-1.03,3.61-.13,3.61,1.11v22.65H3.89c.19-5.87-.25-11.79-.01-17.66.02-.59.3-1.11.29-1.66-.04-1.98-.69-4.46,1.67-5.02ZM101.37,66.52c4.88,3.1,9.52,7.76,11.69,13.18h-56.95c.31-1.16,1.36-2.33,2.11-3.3,10.65-13.71,27.48-19.82,43.15-9.87ZM49.87,121.34c-13.21-1.12-26.74-6.22-30.99-19.97h31.11l-.13,19.97ZM50,97.76h-7.22v-16.54c0-1.96-5-2.09-5,.56v15.98h-7.78v-16.26c0-.07-.59-1.14-.75-1.27-1.3-1.05-4.25-.56-4.25,1.27v16.26h-6.94v-29.18h31.95v29.18ZM20.56,64.97l13.24-12.2,13.71,12.2h-26.95ZM36.39,49.54c-1.8-1.46-2.18-2.16-4.17-.55-5.8,4.69-11.02,10.66-16.95,15.28-.25.24-1.1,1.5-1.1,1.68v13.48c-.48.12-.55-.2-.84-.42-2.95-2.26-5.42-6.81-6.67-10.28-3.65-10.09-2.62-20.99-2.77-31.55h58.89v29.32l-5.98,5.69-2.91,3.89v-10.14c0-.65-1.19-1.75-1.66-2.23-4.47-4.43-10.94-10.2-15.83-14.17ZM101.12,148.89c-.84-.68-3.71-1.67-3.89-2.64-.07-3.34.09-6.68.01-10.02-.22-9.48.46-20.53-.29-29.72-.78-9.55-9.06-18.7-18.97-13.43-8.87,4.72-7.86,17.06-7.98,25.64-.03,2.11.11,4.17.29,6.26-5.26-2.01-10.54-3.18-16.21-3.38l-.18-38.31h59.73l.23,14.54c-1.68,1.47-3.75,2.39-5.51,3.94-3.2,2.82-7.22,9.3-7.22,13.62v33.49ZM126.67,131.94l-1.33-2.97c-4.98-7.59-14.42-4.54-15.3,4.26-.25,2.46-.31,6.32-.32,8.85-.01,3.11.52,6.21.29,9.32l-4.82-.6-.43-.41-.05-32.21c.65-11.2,9.14-19.03,20.44-18.2.63.05,2.7.23,2.87.74l-1.35,31.22ZM128.34,96.65c-3.76-.8-7.4-.72-11.11.28v-17.09c0-2.01-3.68-6.82-5-8.47h17.22l-1.11,25.29ZM130.71,132.5l2.64-61.14h13.61l1.12,29.86c-.16,2.84.17,5.81,0,8.64-.6,10.01-6.56,21.25-17.37,22.64ZM146.4,60.52c-.09.27.28.6.28.69v6.53h-13.06s.28-7.23.28-7.23h12.5ZM134.8,54.89c2.96-7.68,9.86-4.79,11.05,2.02h-11.25c-.62-.35-.02-1.43.2-2.02ZM142.37,46.63c-.23-1.44.32-7.21-2.21-6.97-2.35.23-2.19,5.3-2.14,6.92-8.62,3.21-7.81,13.29-8.29,20.89l-2.22.28v-20.7c0-1.59-.69-3.45-1.67-4.72-2.74-3.53-7.79-3.56-10.39.15-.23.33-1.27,2.4-1.27,2.62v22.23l-.4.35c-2.07-.57-4.81,1.19-6.21-1.24l-.06-20.5c-.67-6.7-9.5-8.64-12.55-2.55-.13.26-.78,1.89-.78,1.99v13.48l-6.11-.83v-10.7c0-1.23-.72-3.62-1.43-4.68-3.48-5.16-11.41-3.09-12.15,3.04-.24,2.02.4,13.44-.06,13.97l-8.02,3.65V30.51h65.42c3.04.38,7.67,3.02,10.12,4.89,8.74,6.67,14.94,20.7,13.36,31.66-.04.28-.1.53-.41.62l-4.32.07c-.33-7.77.12-17.38-8.2-21.12ZM150.57,71.36h4.17c-.62,3.5-1.83,6.88-3.47,10.01-.63.11-.38-.28-.41-.69-.25-3.08.25-6.24-.28-9.31Z"/>
  <path class="cls-2" d="M141.41,87.63c.83-1.32.7-8.29-.36-9.25-.66-.6-1.92-.39-2.4.37-.46.72-.69,6.06-.55,7.16.24,1.96,2.18,3.53,3.32,1.71Z"/>
  <path class="cls-1" d="M45.6,116.44v-10.7h-19.83c4.7,6.74,13.04,9.55,19.83,10.7Z"/>
  <path class="cls-1" d="M58.39,28.96v-6.4c-1.88,1.34-4.22,2.12-6.79,2.12-3.72,0-7.02-1.57-9.17-4.22-2.12,2.63-5.39,4.27-9.12,4.27s-6.9-1.59-8.93-4.27c-2.11,2.64-5.38,4.25-9.02,4.25-2.8,0-5.33-.93-7.26-2.53.01,1.72.13,6.79.13,6.79h50.16Z"/>
  <path class="cls-1" d="M58.05,64.97l.34-.33v-23.09H8.27v1.04c-.12,7.99-.22,15.58,1.74,22.53.46-1.48,1.73-3.57,2.58-4.22,3.18-2.48,6.23-5.42,9.25-8.34,2.5-2.4,4.99-4.8,7.67-7.06.75-.59,3.49-1.77,4.45-1.77,2.15,0,3.6,1.15,5.28,2.5,4.85,3.95,11.46,9.9,16.16,14.38.87.88,2.24,2.5,2.66,4.37Z"/>
  <polygon class="cls-1" points="38.35 61.61 33.89 57.66 29.52 61.61 38.35 61.61"/>
  <path class="cls-1" d="M31.74,76.53c1.21.8,1.96,1.22,1.96,2.66.07.12.14.24.19.36.97-2.46,3.48-4.13,6.58-4.13,2.11,0,3.94.78,5.14,2.04v-4.47h-23.2v4.36c1.25-1.24,3.1-1.99,5.23-1.99,1.08,0,2.67.2,4.11,1.16Z"/>
  <path class="cls-1" d="M143.41,91.63c-1.03.68-2.26,1.2-3.12,1.2-1.25,0-2.44-.42-3.45-1.14l-1.6,34.58c5.18-3.26,8.18-10.1,8.6-16.41l-.04-2.74c-.05-2.1-.1-4.22.05-5.74l-.43-9.74Z"/>
  <path class="cls-1" d="M121.51,91.8c.64-.04,2.5-.06,2.81-.05l.68-15.94h-4.63c.69,1.43,1.14,2.85,1.14,4.12v11.87Z"/>
  <path class="cls-1" d="M109.14,118.09v6.44c2.29-2.65,5.5-4.25,9.11-4.25,1.58,0,3.11.32,4.56.95l.72-17.06c-8.02.17-13.91,5.94-14.39,13.91Z"/>
  <path class="cls-1" d="M109.55,95.63l-.12-7.9h-21.8c7.04,1.91,11.94,8.89,13.36,16.23,1.45-2.22,3.06-4.14,4.44-5.41,1.19-1.03,2.54-1.91,3.86-2.75l.25-.17Z"/>
  <path class="cls-1" d="M58.37,117.56c2.37.29,4.75.75,7.19,1.39,0-.1.03-3.39.03-3.39.06-8.87.15-21.04,10.25-26.22,1.33-.72,2.68-1.26,4.02-1.61h-21.66l.17,29.83Z"/>
  <path class="cls-1" d="M99.01,70.13c-4.43-2.82-9.05-4.25-13.79-4.25-7.22,0-14.46,3.41-20.38,9.48h40.42c-1.74-1.98-3.88-3.78-6.25-5.23Z"/>
  <path class="cls-1" d="M70.76,34.82v7.84c1.6-4.34,5.7-7.3,10.48-7.3,3.63,0,6.89,1.77,9.07,5.04.2.35.43.79.67,1.3.07-.14.14-.25.18-.36,1.9-3.79,5.47-6.06,9.57-6.06,4.43,0,8.27,2.64,10.04,6.7.29-.56.66-1.23,1.12-2.08,2.06-2.92,5.22-4.61,8.66-4.61s6.55,1.63,8.66,4.38c1.06,1.31,2.13,3.4,2.53,5.54.59-.51,1.24-1,1.96-1.43.16-2.22.72-5.09,2.64-6.89-1.82-1.09-3.67-1.95-4.44-2.09h-61.15Z"/>
  <path class="cls-1" d="M94.92,8.31c-9.87,0-18.6,4.01-24.16,11.04v2.89h51.77c-6.33-9.57-17.8-13.93-27.6-13.93Z"/>
</svg>